Coordinates
version=1
nRows=7
nColumns=40
inDegrees=yes

Units are S.I. units (second, meters, Newtons, ...)
Angles are in degrees.

endheader
time	pelvis_tilt	pelvis_list	pelvis_rotation	pelvis_tx	pelvis_ty	pelvis_tz	hip_flexion_r	hip_adduction_r	hip_rotation_r	knee_angle_r	knee_angle_r_beta	ankle_angle_r	subtalar_angle_r	mtp_angle_r	hip_flexion_l	hip_adduction_l	hip_rotation_l	knee_angle_l	knee_angle_l_beta	ankle_angle_l	subtalar_angle_l	mtp_angle_l	lumbar_extension	lumbar_bending	lumbar_rotation	arm_flex_r	arm_add_r	arm_rot_r	elbow_flex_r	pro_sup_r	wrist_flex_r	wrist_dev_r	arm_flex_l	arm_add_l	arm_rot_l	elbow_flex_l	pro_sup_l	wrist_flex_l	wrist_dev_l
     33.45000000	     -8.03466854	     -5.36649125	      1.78109176	      1.07935624	      0.91856986	      0.41986478	      7.31499804	      0.52980006	    -14.25568225	     30.45444858	     30.45444858	     14.56963680	     -5.05306861	     -8.83149595	     29.93330213	     -5.78023930	     -2.66021691	     26.98630289	     26.98630289	      8.62587217	    -14.37029611	      3.98758725	     -9.73416451	      4.03308980	      3.99895154	     24.79416641	    -16.48516997	      8.62434748	     84.96105359	     44.41182853	      0.00000000	      0.00000000	     -3.96122487	     -8.14360263	    -11.62527431	     39.46247355	     45.49777754	      0.00000000	      0.00000000
     33.46200000	     -8.01180539	     -5.15622793	      1.59934136	      1.07961952	      0.91957767	      0.41787184	      8.92039359	     -0.40721025	    -14.05254417	     34.24968545	     34.24968545	     13.25482581	     -6.23549248	     -9.52974931	     29.13061692	     -5.59841116	     -3.19025360	     26.68546037	     26.68546037	      9.14316535	    -13.91264044	      3.67654156	     -9.89950598	      3.79533861	      3.90106523	     22.94482904	    -16.59144489	      9.10108156	     83.72903217	     44.43510202	      0.00000000	      0.00000000	     -3.39461693	     -8.42510493	    -11.81021078	     39.93789625	     45.53601269	      0.00000000	      0.00000000
     33.47400000	     -8.10671872	     -5.12752370	      1.34635869	      1.07972248	      0.92028575	      0.41630883	     10.71431491	     -0.91831316	    -13.37384999	     37.81067729	     37.81067729	     10.59920757	     -8.96954481	    -12.59898636	     28.47453417	     -5.68280434	     -3.83544412	     26.36681648	     26.36681648	      9.36693705	    -13.34604218	      2.55302958	     -9.83841889	      3.70869449	      3.36529683	     21.99359256	    -16.31359573	     10.19453832	     80.12714656	     44.59075914	      0.00000000	      0.00000000	     -3.64042154	     -8.67569951	    -12.79877543	     41.72704742	     45.75756174	      0.00000000	      0.00000000
     33.48600000	     -8.09188839	     -4.94309710	      1.14887086	      1.07978051	      0.92097197	      0.41464169	     12.59492936	     -1.72994623	    -12.98427960	     41.81076485	     41.81076485	      9.04381377	    -10.48675475	    -12.49501688	     27.72167601	     -5.55530877	     -4.42090558	     26.11085469	     26.11085469	      9.83773891	    -12.83281337	      2.22156857	     -9.98272325	      3.49509037	      3.35871514	     20.11501085	    -16.46585805	     10.50114215	     78.63690377	     44.62679921	      0.00000000	      0.00000000	     -3.01343011	     -9.03422486	    -12.91886442	     42.20172518	     45.78807297	      0.00000000	      0.00000000
     33.49800000	     -8.15679688	     -4.91185166	      0.94182021	      1.07972213	      0.92150556	      0.41323325	     14.62151427	     -2.15705201	    -12.28958856	     45.65942082	     45.65942082	      7.39412495	    -12.59833877	    -11.51781344	     27.09692932	     -5.64318018	     -5.10086860	     25.89112847	     25.89112847	     10.26810705	    -12.00871779	      1.61157077	     -9.97565107	      3.46991131	      3.49199550	     18.43026742	    -16.52106869	     10.57694705	     75.79374304	     44.72164208	      0.00000000	      0.00000000	     -2.45885871	     -9.34203864	    -12.95122300	     43.07744102	     45.81976199	      0.00000000	      0.00000000
     33.51000000	     -8.07360795	     -4.80187298	      0.79977331	      1.07969071	      0.92208305	      0.41181406	     16.54638534	     -2.72253446	    -11.80112763	     49.55235952	     49.55235952	      6.52002632	    -13.77551848	     -8.75039480	     26.32759759	     -5.63943400	     -5.79762704	     25.69403607	     25.69403607	     10.59547459	    -11.18141161	      0.69025501	    -10.11190382	      3.34217263	      2.76467559	     17.63740059	    -15.65189287	     10.56680763	     71.54468332	     44.88318322	      0.00000000	      0.00000000	     -2.55654534	     -9.94692273	    -12.77250262	     44.42662910	     45.85620872	      0.00000000	      0.00000000
     33.52200000	     -8.00045749	     -4.58325698	      0.69534918	      1.07962451	      0.92256204	      0.41026725	     18.40627634	     -3.44317585	    -11.44335799	     53.08987562	     53.08987562	      5.09587513	    -15.03579303	     -8.10684490	     25.56112253	     -5.40444117	     -6.21041650	     25.46611386	     25.46611386	     10.96675950	    -10.86239994	      0.46738305	    -10.33932456	      3.16088781	      2.62226897	     15.73045637	    -15.86310122	     10.91729638	     70.04349514	     44.91558011	      0.00000000	      0.00000000	     -1.92577077	    -10.39023808	    -12.89444070	     44.96489143	     45.88687310	      0.00000000	      0.00000000
